<svg width="24" height="24" viewBox="0 0 24 24" fill="none" xmlns="http://www.w3.org/2000/svg">
<path d="M14 13.5C14 14.0523 14.4477 14.5 15 14.5C15.5523 14.5 16 14.0523 16 13.5H14ZM15 9H16C16 8.44772 15.5523 8 15 8V9ZM10.5 8C9.94772 8 9.5 8.44772 9.5 9C9.5 9.55228 9.94772 10 10.5 10V8ZM8.29307 14.2928C7.90255 14.6834 7.90256 15.3165 8.29309 15.7071C8.68362 16.0976 9.31678 16.0976 9.7073 15.707L8.29307 14.2928ZM20 12C20 16.4183 16.4183 20 12 20V22C17.5228 22 22 17.5228 22 12H20ZM12 20C7.58172 20 4 16.4183 4 12H2C2 17.5228 6.47715 22 12 22V20ZM4 12C4 7.58172 7.58172 4 12 4V2C6.47715 2 2 6.47715 2 12H4ZM12 4C16.4183 4 20 7.58172 20 12H22C22 6.47715 17.5228 2 12 2V4ZM16 13.5V9H14V13.5H16ZM15 8H10.5V10H15V8ZM9.7073 15.707L15.7071 9.7071L14.2929 8.2929L8.29307 14.2928L9.7073 15.707Z" fill="#131A29"/>
</svg>
